<svg width="61" height="31" viewBox="0 0 61 31" fill="none" xmlns="http://www.w3.org/2000/svg">
<g clip-path="url(#clip0)">
<path d="M37.5482 13.6888C37.5482 13.8977 37.5482 14.1067 37.5482 14.3157V15.6916L38.8718 15.2736L40.3521 14.8208L41.0662 14.5944V13.8455V13.6017C41.0662 11.1809 40.0038 10.1011 37.6353 10.1011H32.1493C29.7285 10.1011 28.7358 11.1635 28.7358 13.7933V14.786C28.7358 17.3983 29.7285 18.4781 32.1493 18.4781C33.9606 18.4781 35.7892 18.4781 37.6005 18.4781C37.6005 18.9309 37.6005 19.3837 37.6005 19.8365C35.7196 19.8365 33.8387 19.8365 31.9752 19.8365C31.9752 19.5753 31.9752 19.2966 31.9752 19.0354V17.7118L30.7038 18.0427L29.0842 18.4607L28.3179 18.6522V19.436V19.7494C28.3179 22.3618 29.3106 23.4416 31.7488 23.4416H37.7572C40.178 23.4416 41.1707 22.3792 41.1707 19.7494V18.4781C41.1707 15.8657 40.178 14.786 37.7572 14.786C35.9286 14.786 34.0999 14.786 32.2887 14.786C32.2887 14.4202 32.2887 14.0371 32.2887 13.6713C34.0476 13.6888 35.7892 13.6888 37.5482 13.6888Z" fill="#25408F"/>
<path d="M37.5482 13.6888C37.5482 13.8977 37.5482 14.1067 37.5482 14.3157V15.6916L38.8718 15.2736L40.3521 14.8208L41.0662 14.5944V13.8455V13.6017C41.0662 11.1809 40.0038 10.1011 37.6353 10.1011H32.1493C29.7285 10.1011 28.7358 11.1635 28.7358 13.7933V14.786C28.7358 17.3983 29.7285 18.4781 32.1493 18.4781C33.9606 18.4781 35.7892 18.4781 37.6005 18.4781C37.6005 18.9309 37.6005 19.3837 37.6005 19.8365C35.7196 19.8365 33.8387 19.8365 31.9752 19.8365C31.9752 19.5753 31.9752 19.2966 31.9752 19.0354V17.7118L30.7038 18.0427L29.0842 18.4607L28.3179 18.6522V19.436V19.7494C28.3179 22.3618 29.3106 23.4416 31.7488 23.4416H37.7572C40.178 23.4416 41.1707 22.3792 41.1707 19.7494V18.4781C41.1707 15.8657 40.178 14.786 37.7572 14.786C35.9286 14.786 34.0999 14.786 32.2887 14.786C32.2887 14.4202 32.2887 14.0371 32.2887 13.6713C34.0476 13.6888 35.7892 13.6888 37.5482 13.6888Z" stroke="#25408F" stroke-width="11.7"/>
<path d="M5.29429 17.6421L15.2561 25.427L16.0572 26.0539L16.6842 25.2528L17.6595 24.0163L18.2864 23.2152L17.4853 22.5882C14.8904 20.5506 12.278 18.5303 9.68305 16.4927C11.9819 13.532 14.2808 10.5888 16.5971 7.6281L17.2241 6.82697L16.4229 6.20001L15.0645 5.13765L14.2634 4.51068L13.6364 5.3118L5.12013 16.214L4.49316 17.0152L5.29429 17.6421Z" fill="#25408F"/>
<path d="M5.29429 17.6421L15.2561 25.427L16.0572 26.0539L16.6842 25.2528L17.6595 24.0163L18.2864 23.2152L17.4853 22.5882C14.8904 20.5506 12.278 18.5303 9.68305 16.4927C11.9819 13.532 14.2808 10.5888 16.5971 7.6281L17.2241 6.82697L16.4229 6.20001L15.0645 5.13765L14.2634 4.51068L13.6364 5.3118L5.12013 16.214L4.49316 17.0152L5.29429 17.6421Z" stroke="#25408F" stroke-width="11.7"/>
<path d="M51.4285 13.6888C51.4285 13.8977 51.4285 14.1067 51.4285 14.3157V15.6916L52.7521 15.2736L54.2324 14.8208L54.9465 14.5944V13.8455V13.6017C54.9465 11.1809 53.8841 10.1011 51.5156 10.1011H46.0296C43.6088 10.1011 42.6161 11.1635 42.6161 13.7933V14.786C42.6161 17.3983 43.6088 18.4781 46.0296 18.4781C47.8409 18.4781 49.6695 18.4781 51.4808 18.4781C51.4808 18.9309 51.4808 19.3837 51.4808 19.8365C49.5999 19.8365 47.719 19.8365 45.8555 19.8365C45.8555 19.5753 45.8555 19.2966 45.8555 19.0354V17.7118L44.5841 18.0427L42.9819 18.4607L42.2156 18.6522V19.436V19.7494C42.2156 22.3618 43.2083 23.4416 45.6465 23.4416H51.6549C54.0757 23.4416 55.0684 22.3792 55.0684 19.7494V18.4781C55.0684 15.8657 54.0757 14.786 51.6549 14.786C49.8263 14.786 47.9976 14.786 46.1864 14.786C46.1864 14.4202 46.1864 14.0371 46.1864 13.6713C47.9279 13.6888 49.6869 13.6888 51.4285 13.6888Z" fill="#25408F"/>
<path d="M51.4285 13.6888C51.4285 13.8977 51.4285 14.1067 51.4285 14.3157V15.6916L52.7521 15.2736L54.2324 14.8208L54.9465 14.5944V13.8455V13.6017C54.9465 11.1809 53.8841 10.1011 51.5156 10.1011H46.0296C43.6088 10.1011 42.6161 11.1635 42.6161 13.7933V14.786C42.6161 17.3983 43.6088 18.4781 46.0296 18.4781C47.8409 18.4781 49.6695 18.4781 51.4808 18.4781C51.4808 18.9309 51.4808 19.3837 51.4808 19.8365C49.5999 19.8365 47.719 19.8365 45.8555 19.8365C45.8555 19.5753 45.8555 19.2966 45.8555 19.0354V17.7118L44.5841 18.0427L42.9819 18.4607L42.2156 18.6522V19.436V19.7494C42.2156 22.3618 43.2083 23.4416 45.6465 23.4416H51.6549C54.0757 23.4416 55.0684 22.3792 55.0684 19.7494V18.4781C55.0684 15.8657 54.0757 14.786 51.6549 14.786C49.8263 14.786 47.9976 14.786 46.1864 14.786C46.1864 14.4202 46.1864 14.0371 46.1864 13.6713C47.9279 13.6888 49.6869 13.6888 51.4285 13.6888Z" stroke="#25408F" stroke-width="11.7"/>
<path d="M20.0281 16.9629C20.1152 16.2663 20.359 15.709 20.7596 15.3258C21.1602 14.9427 21.6826 14.7511 22.327 14.7511C22.9888 14.7511 23.4939 14.9427 23.877 15.3433C24.2602 15.7438 24.4691 16.2837 24.5388 16.9455H20.0281V16.9629ZM26.559 15.5697C26.3675 14.9949 26.0888 14.4899 25.7057 14.0719C25.3225 13.6539 24.8697 13.323 24.3124 13.0792C23.7551 12.8354 23.1107 12.7135 22.3793 12.7135C21.5781 12.7135 20.8815 12.8528 20.2545 13.1315C19.6276 13.4101 19.1225 13.7933 18.6871 14.2635C18.2691 14.7337 17.9557 15.291 17.7293 15.9006C17.5203 16.5275 17.4158 17.1545 17.4158 17.8163C17.4158 18.5129 17.5203 19.1573 17.7293 19.7669C17.9382 20.3764 18.2691 20.9163 18.722 21.3691C19.1573 21.8219 19.7321 22.1876 20.3939 22.4663C21.0731 22.7275 21.8568 22.8669 22.7798 22.8669C23.2675 22.8669 23.8073 22.8146 24.4169 22.7101C25.009 22.6056 25.6186 22.4837 26.2107 22.3096L25.8972 20.2893C25.4096 20.4461 24.922 20.568 24.4169 20.6725C23.9118 20.777 23.459 20.8292 23.0585 20.8292C22.0484 20.8292 21.3169 20.6202 20.8467 20.2197C20.3939 19.8191 20.0978 19.2618 19.9933 18.5826H26.7854C26.8203 18.4084 26.8377 18.2169 26.8377 17.9905C26.8377 17.764 26.8551 17.5725 26.8551 17.3983C26.8551 16.7539 26.7506 16.1444 26.559 15.5697Z" fill="#25408F"/>
<path d="M20.0281 16.9629C20.1152 16.2663 20.359 15.709 20.7596 15.3258C21.1602 14.9427 21.6826 14.7511 22.327 14.7511C22.9888 14.7511 23.4939 14.9427 23.877 15.3433C24.2602 15.7438 24.4691 16.2837 24.5388 16.9455H20.0281V16.9629ZM26.559 15.5697C26.3675 14.9949 26.0888 14.4899 25.7057 14.0719C25.3225 13.6539 24.8697 13.323 24.3124 13.0792C23.7551 12.8354 23.1107 12.7135 22.3793 12.7135C21.5781 12.7135 20.8815 12.8528 20.2545 13.1315C19.6276 13.4101 19.1225 13.7933 18.6871 14.2635C18.2691 14.7337 17.9557 15.291 17.7293 15.9006C17.5203 16.5275 17.4158 17.1545 17.4158 17.8163C17.4158 18.5129 17.5203 19.1573 17.7293 19.7669C17.9382 20.3764 18.2691 20.9163 18.722 21.3691C19.1573 21.8219 19.7321 22.1876 20.3939 22.4663C21.0731 22.7275 21.8568 22.8669 22.7798 22.8669C23.2675 22.8669 23.8073 22.8146 24.4169 22.7101C25.009 22.6056 25.6186 22.4837 26.2107 22.3096L25.8972 20.2893C25.4096 20.4461 24.922 20.568 24.4169 20.6725C23.9118 20.777 23.459 20.8292 23.0585 20.8292C22.0484 20.8292 21.3169 20.6202 20.8467 20.2197C20.3939 19.8191 20.0978 19.2618 19.9933 18.5826H26.7854C26.8203 18.4084 26.8377 18.2169 26.8377 17.9905C26.8377 17.764 26.8551 17.5725 26.8551 17.3983C26.8551 16.7539 26.7506 16.1444 26.559 15.5697Z" stroke="#25408F" stroke-width="18.72"/>
<path d="M38.3668 12.8702C38.3668 13.3579 38.3668 13.8281 38.3668 14.3157V14.5944L38.628 14.5073L40.1084 14.0545L40.2477 14.0022V13.8455V13.6017C40.2477 11.6337 39.5685 10.9197 37.6353 10.9197H32.1494C30.1814 10.9197 29.5545 11.6163 29.5545 13.7933V14.786C29.5545 16.9629 30.1814 17.6596 32.1494 17.6596C34.2393 17.6596 36.3292 17.6596 38.4191 17.6596C38.4191 18.6522 38.4191 19.6449 38.4191 20.6376C35.9983 20.6376 33.5775 20.6376 31.1567 20.6376C31.1567 20.0978 31.1567 19.5579 31.1567 19.018V18.7567L30.8955 18.8264L29.2932 19.2444L29.1365 19.2792V19.436V19.7494C29.1365 21.9264 29.7809 22.623 31.7488 22.623H37.7573C39.7252 22.623 40.3522 21.9264 40.3522 19.7494V18.4781C40.3522 16.3011 39.7252 15.6045 37.7573 15.6045C35.6674 15.6045 33.5601 15.6045 31.4702 15.6045C31.4702 14.6815 31.4702 13.7758 31.4702 12.8528C33.7691 12.8702 36.0679 12.8702 38.3668 12.8702Z" fill="white"/>
<path d="M38.3668 12.8702C38.3668 13.3579 38.3668 13.8281 38.3668 14.3157V14.5944L38.628 14.5073L40.1084 14.0545L40.2477 14.0022V13.8455V13.6017C40.2477 11.6337 39.5685 10.9197 37.6353 10.9197H32.1494C30.1814 10.9197 29.5545 11.6163 29.5545 13.7933V14.786C29.5545 16.9629 30.1814 17.6596 32.1494 17.6596C34.2393 17.6596 36.3292 17.6596 38.4191 17.6596C38.4191 18.6522 38.4191 19.6449 38.4191 20.6376C35.9983 20.6376 33.5775 20.6376 31.1567 20.6376C31.1567 20.0978 31.1567 19.5579 31.1567 19.018V18.7567L30.8955 18.8264L29.2932 19.2444L29.1365 19.2792V19.436V19.7494C29.1365 21.9264 29.7809 22.623 31.7488 22.623H37.7573C39.7252 22.623 40.3522 21.9264 40.3522 19.7494V18.4781C40.3522 16.3011 39.7252 15.6045 37.7573 15.6045C35.6674 15.6045 33.5601 15.6045 31.4702 15.6045C31.4702 14.6815 31.4702 13.7758 31.4702 12.8528C33.7691 12.8702 36.0679 12.8702 38.3668 12.8702Z" stroke="white" stroke-width="2.34"/>
<path d="M5.79932 17.0152L15.7611 24.8L15.9179 24.9219L16.0398 24.7652L17.0151 23.5287L17.137 23.3719L16.9802 23.25C14.1589 21.0208 11.3375 18.8264 8.53359 16.632C11.0066 13.4624 13.4797 10.2927 15.9527 7.14046L16.0746 6.98372L15.9179 6.86181L14.5594 5.79945L14.4027 5.67754L14.2808 5.81686L5.76449 16.7191L5.64258 16.8759L5.79932 17.0152Z" fill="white"/>
<path d="M5.79932 17.0152L15.7611 24.8L15.9179 24.9219L16.0398 24.7652L17.0151 23.5287L17.137 23.3719L16.9802 23.25C14.1589 21.0208 11.3375 18.8264 8.53359 16.632C11.0066 13.4624 13.4797 10.2927 15.9527 7.14046L16.0746 6.98372L15.9179 6.86181L14.5594 5.79945L14.4027 5.67754L14.2808 5.81686L5.76449 16.7191L5.64258 16.8759L5.79932 17.0152Z" stroke="white" stroke-width="2.34"/>
<path d="M52.2472 12.8702C52.2472 13.3579 52.2472 13.8281 52.2472 14.3157V14.5944L52.5084 14.5073L53.9887 14.0545L54.1281 14.0022V13.8455V13.6017C54.1281 11.6337 53.4489 10.9197 51.5157 10.9197H46.0298C44.0618 10.9197 43.4348 11.6163 43.4348 13.7933V14.786C43.4348 16.9629 44.0618 17.6596 46.0298 17.6596C48.1196 17.6596 50.2095 17.6596 52.2994 17.6596C52.2994 18.6522 52.2994 19.6449 52.2994 20.6376C49.8786 20.6376 47.4579 20.6376 45.0371 20.6376C45.0371 20.0978 45.0371 19.5579 45.0371 19.018V18.7567L44.7758 18.8264L43.1736 19.2444L43.0168 19.2792V19.436V19.7494C43.0168 21.9264 43.6612 22.623 45.6292 22.623H51.6376C53.6056 22.623 54.2326 21.9264 54.2326 19.7494V18.4781C54.2326 16.3011 53.6056 15.6045 51.6376 15.6045C49.5477 15.6045 47.4404 15.6045 45.3506 15.6045C45.3506 14.6815 45.3506 13.7758 45.3506 12.8528C47.6668 12.8702 49.9483 12.8702 52.2472 12.8702Z" fill="white"/>
<path d="M52.2472 12.8702C52.2472 13.3579 52.2472 13.8281 52.2472 14.3157V14.5944L52.5084 14.5073L53.9887 14.0545L54.1281 14.0022V13.8455V13.6017C54.1281 11.6337 53.4489 10.9197 51.5157 10.9197H46.0298C44.0618 10.9197 43.4348 11.6163 43.4348 13.7933V14.786C43.4348 16.9629 44.0618 17.6596 46.0298 17.6596C48.1196 17.6596 50.2095 17.6596 52.2994 17.6596C52.2994 18.6522 52.2994 19.6449 52.2994 20.6376C49.8786 20.6376 47.4579 20.6376 45.0371 20.6376C45.0371 20.0978 45.0371 19.5579 45.0371 19.018V18.7567L44.7758 18.8264L43.1736 19.2444L43.0168 19.2792V19.436V19.7494C43.0168 21.9264 43.6612 22.623 45.6292 22.623H51.6376C53.6056 22.623 54.2326 21.9264 54.2326 19.7494V18.4781C54.2326 16.3011 53.6056 15.6045 51.6376 15.6045C49.5477 15.6045 47.4404 15.6045 45.3506 15.6045C45.3506 14.6815 45.3506 13.7758 45.3506 12.8528C47.6668 12.8702 49.9483 12.8702 52.2472 12.8702Z" stroke="white" stroke-width="2.34"/>
<path d="M20.0281 16.9629C20.1152 16.2663 20.359 15.709 20.7596 15.3258C21.1602 14.9427 21.6826 14.7511 22.327 14.7511C22.9888 14.7511 23.4939 14.9427 23.877 15.3433C24.2602 15.7438 24.4691 16.2837 24.5388 16.9455H20.0281V16.9629ZM26.559 15.5697C26.3675 14.9949 26.0888 14.4899 25.7057 14.0719C25.3225 13.6539 24.8697 13.323 24.3124 13.0792C23.7551 12.8354 23.1107 12.7135 22.3793 12.7135C21.5781 12.7135 20.8815 12.8528 20.2545 13.1315C19.6276 13.4101 19.1225 13.7933 18.6871 14.2635C18.2691 14.7337 17.9557 15.291 17.7293 15.9006C17.5203 16.5275 17.4158 17.1545 17.4158 17.8163C17.4158 18.5129 17.5203 19.1573 17.7293 19.7669C17.9382 20.3764 18.2691 20.9163 18.722 21.3691C19.1573 21.8219 19.7321 22.1876 20.3939 22.4663C21.0731 22.7275 21.8568 22.8669 22.7798 22.8669C23.2675 22.8669 23.8073 22.8146 24.4169 22.7101C25.009 22.6056 25.6186 22.4837 26.2107 22.3096L25.8972 20.2893C25.4096 20.4461 24.922 20.568 24.4169 20.6725C23.9118 20.777 23.459 20.8292 23.0585 20.8292C22.0484 20.8292 21.3169 20.6202 20.8467 20.2197C20.3939 19.8191 20.0978 19.2618 19.9933 18.5826H26.7854C26.8203 18.4084 26.8377 18.2169 26.8377 17.9905C26.8377 17.764 26.8551 17.5725 26.8551 17.3983C26.8551 16.7539 26.7506 16.1444 26.559 15.5697Z" fill="white"/>
</g>
<defs>
<clipPath id="clip0">
<rect width="60.4326" height="31" fill="white"/>
</clipPath>
</defs>
</svg>
